{"title":"Battle Force[2011]ENG[DvDRip]Xvid-{RedDragon}","uid":6924203,"size":737874833,"categoryP":"video","categoryS":"movies","magnet":"?xt=urn:btih:bb1d3981f372291ff44936c8084e45828a0b15f2&amp;dn=Battle+Force%5B2011%5DENG%5BDvDRip%5DXvid-%7BRedDragon%7D&amp;tr=udp%3A%2F%2Ftracker.openbittorrent.com%3A80&amp;tr=udp%3A%2F%2Fopen.demonii.com%3A1337&amp;tr=udp%3A%2F%2Ftracker.coppersurfer.tk%3A6969&amp;tr=udp%3A%2F%2Fexodus.desync.com%3A6969","seeders":1,"leechers":0,"uploader":"RedDr4gon","files":8,"time":1325401626,"description":"General\n\nComplete name                    : Battle Force [2011]ENG[DvDRip]Xvid-{RedDragon} .avi\nFormat                           : MPEG-4\nFormat profile                   : Base Media / Version 2\nCodec ID                         : mp42\nFile size                        : 704 MiB\nDuration                         : 1h 37mn\nOverall bit rate                 : 1 009 Kbps\nEncoded date                     : UTC 2012-01-01 05:40:47\nTagged date                      : UTC 2012-01-01 05:53:42\nIMDb                             : http://www.imdb.com/title/tt2103997/\n\nVideo\n\nID                               : 1\nFormat                           : MPEG-4 Visual\nFormat profile                   : Simple@L1\nFormat settings, BVOP            : No\nFormat settings, QPel            : No\nFormat settings, GMC             : No warppoints\nFormat settings, Matrix          : Default (H.263)\nCodec ID                         : 20\nDuration                         : 1h 37mn\nBit rate mode                    : Variable\nBit rate                         : 847 Kbps\nMaximum bit rate                 : 5 443 Kbps\nWidth                            : 720 pixels\nHeight                           : 400 pixels\nDisplay aspect ratio             : 16:9\nFrame rate mode                  : Constant\nFrame rate                       : 25.000 fps\nColor space                      : YUV\nChroma subsampling               : 4:2:0\nBit depth                        : 8 bits\nScan type                        : Progressive\nBits/(Pixel*Frame)               : 0.118\nStream size                      : 590 MiB (84%)\nWriting library                  : Lavc52.94.3\nEncoded date                     : UTC 2012-01-01 05:40:47\nTagged date                      : UTC 2012-01-01 05:53:42\n\nAudio\n\nID                               : 2\nFormat                           : AAC\nFormat/Info                      : Advanced Audio Codec\nFormat version                   : Version 4\nFormat profile                   : LC\nFormat settings, SBR             : No\nCodec ID                         : 40\nDuration                         : 1h 37mn\nBit rate mode                    : Variable\nBit rate                         : 160 Kbps\nMaximum bit rate                 : 321 Kbps\nChannel(s)                       : 2 channels\nChannel positions                : Front: L R\nSampling rate                    : 48.0 KHz\nStream size                      : 112 MiB (16%)\nLanguage                         : English\nEncoded date                     : UTC 2012-01-01 05:40:47\nTagged date                      : UTC 2012-01-01 05:53:42\n\n \nFORUMS. \n\n \nPlease Join my Forums :\n\n &lt;a href=&quot;\nhttp://discussionforums.freeforhosting.com/&quot; rel=&quot;nofollow&quot; target=&quot;_NEW&quot;&gt;\nhttp://discussionforums.freeforhosting.com/&lt;/a&gt;    --&gt; Discussion Forum.","torrent":{"xt":"urn:btih:bb1d3981f372291ff44936c8084e45828a0b15f2","amp;dn":"Battle+Force%5B2011%5DENG%5BDvDRip%5DXvid-%7BRedDragon%7D","amp;tr":["udp%3A%2F%2Ftracker.openbittorrent.com%3A80","udp%3A%2F%2Fopen.demonii.com%3A1337","udp%3A%2F%2Ftracker.coppersurfer.tk%3A6969","udp%3A%2F%2Fexodus.desync.com%3A6969"],"infoHash":"bb1d3981f372291ff44936c8084e45828a0b15f2","infoHashBuffer":{"type":"Buffer","data":[187,29,57,129,243,114,41,31,244,73,54,200,8,78,69,130,138,11,21,242]},"announce":[],"urlList":[]}}